# xmcd CD database file
#
# Track frame offsets:
#	150
#	19336
#	35685
#	54553
#	73950
#	92136
#	107383
#	123888
#	143793
#	161509
#	177241
#	191267
#	206121
#	227522
#	249573
#	263037
#	284334
#	296429
#
# Disc length: 4144 seconds
#
# Revision: 1
# Processed by: cddbd v1.5.1PL0 Copyright (c) Steve Scherf et al.
# Submitted via: CDex 1.51
#
DISCID=05102e12
DTITLE=Various Artist - Tropical dance Grooves
DYEAR=2002
DGENRE=Salsa
TTITLE0=Aurora Navarro - Oye
TTITLE1=10 Dance  - Lik maar aan nijn lollie
TTITLE2=Carribean Dance - Macarena
TTITLE3=Miammi all stars - I lik it like that
TTITLE4=Chaka demus Pliers - Tease me
TTITLE5=Monica nogueira - Bahia Tropical
TTITLE6=Trafassi - Pum pum sexy body
TTITLE7=Grupo merenguisimo - suavemente
TTITLE8=Igm - No problem
TTITLE9=Soca Boys - There is a party going on
TTITLE10=Kaome - A la media noche
TTITLE11=Miramar - Baila Baila Comigo
TTITLE12=Booriqua cliub Nene
TTITLE13=Square one - Ragga muffin
TTITLE14=cubaila - La charanga
TTITLE15=Doble R - Zullen we maar weer
TTITLE16=Lorca - Ritmo dela noche
TTITLE17=Carrilio - Samba di janeiro
EXTD=YEAR: 2002
EXTT0=
EXTT1=
EXTT2=
EXTT3=
EXTT4=
EXTT5=
EXTT6=
EXTT7=
EXTT8=
EXTT9=
EXTT10=
EXTT11=
EXTT12=
EXTT13=
EXTT14=
EXTT15=
EXTT16=
EXTT17=
PLAYORDER=
